<?xml version="1.0" standalone="no"?>
<!DOCTYPE svg PUBLIC "-//W3C//DTD SVG 20010904//EN"
 "http://www.w3.org/TR/2001/REC-SVG-20010904/DTD/svg10.dtd">
<svg version="1.0" xmlns="http://www.w3.org/2000/svg"
 width="550.000000pt" height="550.000000pt" viewBox="0 0 550.000000 550.000000"
 preserveAspectRatio="xMidYMid meet">
<metadata>
Created by potrace 1.14, written by Peter Selinger 2001-2017
</metadata>
<g transform="translate(0.000000,550.000000) scale(0.100000,-0.100000)"
fill="#000000" stroke="none">
<path d="M1619 4066 c-2 -2 -30 -7 -61 -10 -258 -30 -531 -169 -739 -376 -207
-206 -334 -456 -377 -745 -9 -63 -9 -293 0 -365 28 -214 132 -464 264 -631 53
-66 209 -214 279 -265 100 -71 273 -155 390 -189 190 -55 170 -54 1380 -54
1042 1 1127 2 1215 19 134 26 142 27 222 56 179 65 341 167 480 304 207 204
325 430 383 730 11 59 14 311 4 375 -5 33 -11 74 -13 90 -11 73 -61 219 -110
320 -186 385 -534 645 -976 729 -62 12 -268 15 -1206 15 -622 1 -1133 -1
-1135 -3z m2301 -328 c163 -37 259 -76 378 -154 192 -126 346 -331 411 -550
27 -93 30 -112 37 -230 25 -401 -201 -781 -567 -956 -87 -42 -190 -74 -274
-86 -65 -9 -2256 -9 -2315 0 -269 42 -536 218 -681 449 -112 177 -162 361
-155 564 5 127 8 150 36 251 99 361 425 651 795 710 22 3 42 8 44 10 7 6 2262
-2 2291 -8z"/>
<path d="M1640 3535 c-300 -62 -517 -263 -611 -565 -20 -64 -23 -95 -22 -210
0 -74 3 -142 5 -150 3 -8 8 -28 12 -45 51 -201 198 -392 381 -495 109 -61 253
-98 385 -98 220 0 421 86 571 245 151 160 222 350 214 568 -2 55 -6 111 -9
125 -3 14 -8 34 -10 46 -11 53 -68 179 -110 242 -54 82 -163 187 -247 238 -64
38 -196 90 -257 100 -79 13 -239 13 -302 -1z"/>
</g>
</svg>
